<?xml version="1.0" standalone="no"?><!DOCTYPE svg PUBLIC "-//W3C//DTD SVG 1.1//EN" "http://www.w3.org/Graphics/SVG/1.1/DTD/svg11.dtd"><svg t="1721637000565" viewBox="0 0 1024 1024" version="1.1" xmlns="http://www.w3.org/2000/svg" p-id="2092" xmlns:xlink="http://www.w3.org/1999/xlink" width="200" height="200"><path d="M911.232 420.565333l0 109.717333q0 22.848-16 38.848t-38.848 16l-237.717333 0 0 237.717333q0 22.848-16 38.848t-38.848 16l-109.717333 0q-22.848 0-38.848-16t-16-38.848l0-237.717333-237.717333 0q-22.848 0-38.848-16t-16-38.848l0-109.717333q0-22.848 16-38.848t38.848-16l237.717333 0 0-237.717333q0-22.848 16-38.848t38.848-16l109.717333 0q22.848 0 38.848 16t16 38.848l0 237.717333 237.717333 0q22.848 0 38.848 16t16 38.848z" fill="currentColor" p-id="2093"></path></svg>
